<svg width="200" height="39" viewBox="0 0 200 39" fill="none" xmlns="http://www.w3.org/2000/svg">
<g clip-path="url(#clip0_1_621)">
<path d="M8.82349 18.9951L13.6274 15.9314H20.5392L15.9313 18.6275V31.6667H8.82349V18.9951Z" fill="#2B536C"/>
<path d="M13.8235 14.3873V2.69608L21.299 0L28.0147 3.65196L27.8431 31.4706H21.299V24.951L26.4951 26.6912V24.3873L21.4951 23.4314L21.299 17.0833L26.4951 18.6275V16.6912L21.4951 15.3676L21.299 9.97549L26.299 11.3235L26.4951 9.60784L21.299 8.2598L21.1029 2.89216L16.1274 4.60784L15.9313 14.5833L13.8235 14.3873Z" fill="#B79827"/>
<path d="M29.2646 8.57843V11.5686C29.2646 11.5686 32.7941 12.3039 35.3186 15.9314C35.3186 15.9314 35.9558 10.7353 29.2646 8.57843Z" fill="#2B536C"/>
<path d="M29.3628 12.8676V15.7353C29.3628 15.7353 32.353 16.4706 35.3187 20.1471C35.3187 20.1471 36.054 15.0245 29.3628 12.8676Z" fill="#2B536C"/>
<path d="M29.4363 17.4755V20.4412C29.4363 20.4412 32.8677 21.201 35.5147 24.7549C35.5147 24.7549 36.1029 19.6324 29.4363 17.4755Z" fill="#2B536C"/>
<path d="M29.4608 21.8873L29.4363 26.2745C29.4363 26.2745 32.9412 27.5245 35.4902 30.4902C35.4902 30.4902 36.9118 24.4118 29.4608 21.9118V21.8873Z" fill="#2B536C"/>
<path d="M29.5588 28.0147V31.8627L34.9755 32.2059C35 32.2059 32.9657 28.8725 29.5588 28.0147Z" fill="#2B536C"/>
<path fill-rule="evenodd" clip-rule="evenodd" d="M40.1225 32.8186V35.1226H3.25977V32.8186H40.1225Z" fill="#2B536C"/>
<path fill-rule="evenodd" clip-rule="evenodd" d="M44.5343 36.1029V38.5784H0V36.0784L44.5343 36.1029Z" fill="#2B536C"/>
<path fill-rule="evenodd" clip-rule="evenodd" d="M51.3236 1.54412V38.7745H49.804V1.54412H51.3236Z" fill="#2B536C"/>
<path fill-rule="evenodd" clip-rule="evenodd" d="M70.9559 7.40196H63.5539V12.0588H69.2157V15.4657H63.5539V20.2206H70.9559V23.7745H59.3383V3.84804H70.9559V7.40196ZM83.2598 13.3088L89.0196 23.7745H84.853C84.5752 23.7745 84.3464 23.701 84.1667 23.5539C84.0033 23.4069 83.8726 23.2353 83.7745 23.0392L80.1716 16.0539C80.1062 16.25 80.0327 16.4216 79.951 16.5686L76.5686 23.0392C76.4543 23.219 76.3235 23.3824 76.1765 23.5294C76.0131 23.6928 75.8088 23.7745 75.5637 23.7745H71.6422L77.451 13.5049L71.8628 3.84804H76.0539C76.3317 3.84804 76.5278 3.88889 76.6422 3.97059C76.7729 4.03595 76.8954 4.1585 77.0098 4.33824L80.5883 11.0539C80.6373 10.9395 80.6863 10.8252 80.7353 10.7108C80.7843 10.6127 80.8415 10.4984 80.9069 10.3676L84.0441 4.41177C84.1585 4.21569 84.2811 4.06863 84.4118 3.97059C84.5425 3.88889 84.7059 3.84804 84.902 3.84804H88.8971L83.2598 13.3088ZM103.701 3.82353V7.47549H98.6275V23.75H94.4363V7.47549H89.3628V3.82353H103.701ZM116.618 16.8137L120.441 23.75H116.667C115.964 23.75 115.458 23.4559 115.147 22.8677L112.157 17.0833C112.01 16.8382 111.855 16.6585 111.691 16.5441C111.511 16.4297 111.258 16.3726 110.931 16.3726H109.877V23.75H105.686V3.82353H111.569C112.86 3.82353 113.962 3.97059 114.877 4.26471C115.809 4.55882 116.56 4.96732 117.132 5.4902C117.721 6.02941 118.145 6.6585 118.407 7.37745C118.685 8.09641 118.824 8.88072 118.824 9.73039C118.824 10.384 118.742 10.9967 118.578 11.5686C118.415 12.1405 118.186 12.6716 117.892 13.1618C117.582 13.652 117.198 14.085 116.74 14.4608C116.299 14.8366 115.784 15.1552 115.196 15.4167C115.474 15.5637 115.727 15.7598 115.956 16.0049C116.201 16.2337 116.422 16.5033 116.618 16.8137ZM109.877 13.1863H111.569C112.124 13.1863 112.606 13.1127 113.015 12.9657C113.407 12.8023 113.734 12.5735 113.995 12.2794C114.257 12.0016 114.444 11.6748 114.559 11.299C114.673 10.9232 114.73 10.5147 114.73 10.0735C114.73 9.19118 114.469 8.5049 113.946 8.01471C113.44 7.52451 112.647 7.27941 111.569 7.27941H109.877V13.1863ZM139.314 13.7745C139.314 15.2124 139.093 16.5523 138.652 17.7941C138.194 19.0359 137.557 20.1144 136.74 21.0294C135.923 21.9444 134.943 22.6634 133.799 23.1863C132.639 23.7092 131.364 23.9706 129.976 23.9706C128.57 23.9706 127.288 23.7092 126.127 23.1863C124.967 22.6634 123.979 21.9444 123.162 21.0294C122.345 20.1144 121.708 19.0359 121.25 17.7941C120.809 16.5523 120.588 15.2124 120.588 13.7745C120.588 12.3366 120.809 10.9967 121.25 9.7549C121.708 8.51307 122.345 7.43464 123.162 6.51961C123.979 5.60458 124.967 4.89379 126.127 4.38726C127.288 3.86438 128.57 3.60294 129.976 3.60294C131.364 3.60294 132.639 3.86438 133.799 4.38726C134.943 4.91013 135.923 5.62909 136.74 6.54412C137.557 7.45915 138.194 8.52941 138.652 9.7549C139.093 10.9967 139.314 12.3366 139.314 13.7745ZM135.049 13.7745C135.049 12.7941 134.935 11.9118 134.706 11.1275C134.461 10.3268 134.126 9.65686 133.701 9.11765C133.26 8.56209 132.729 8.13726 132.108 7.84314C131.487 7.54902 130.776 7.40196 129.976 7.40196C129.159 7.40196 128.431 7.54902 127.794 7.84314C127.173 8.13726 126.642 8.56209 126.201 9.11765C125.776 9.65686 125.449 10.3268 125.221 11.1275C124.976 11.9118 124.853 12.7941 124.853 13.7745C124.853 14.7712 124.976 15.6618 125.221 16.4461C125.449 17.2467 125.776 17.9167 126.201 18.4559C126.642 18.9951 127.173 19.4118 127.794 19.7059C128.431 20 129.159 20.1471 129.976 20.1471C130.776 20.1471 131.487 20 132.108 19.7059C132.729 19.4118 133.26 18.9951 133.701 18.4559C134.126 17.9003 134.461 17.2386 134.706 16.4706C134.935 15.6699 135.049 14.7712 135.049 13.7745ZM154.02 3.82353H157.402L150.172 23.75H146.397L139.167 3.82353H142.525C142.884 3.82353 143.178 3.9134 143.407 4.09314C143.636 4.28922 143.807 4.52614 143.922 4.80392L147.402 15.4902C147.565 15.9477 147.729 16.4543 147.892 17.0098C148.056 17.5654 148.203 18.1454 148.333 18.75C148.448 18.1454 148.578 17.5654 148.726 17.0098C148.873 16.4543 149.028 15.9477 149.191 15.4902L152.647 4.80392C152.745 4.55882 152.909 4.33824 153.137 4.14216C153.382 3.92974 153.677 3.82353 154.02 3.82353ZM166.348 3.82353L173.333 23.75H170.098C169.739 23.75 169.444 23.6601 169.216 23.4804C168.987 23.2843 168.815 23.0392 168.701 22.7451L167.647 19.2647H160.784L159.73 22.7451C159.632 23.0065 159.461 23.2435 159.216 23.4559C158.987 23.652 158.701 23.75 158.358 23.75H155.098L162.083 3.82353H166.348ZM161.74 16.1275H166.667L165 10.6618C164.886 10.3186 164.755 9.9183 164.608 9.46078C164.461 8.98693 164.322 8.47222 164.191 7.91667C164.06 8.47222 163.93 8.98693 163.799 9.46078C163.652 9.93464 163.513 10.3431 163.382 10.6863L161.74 16.1275ZM186.054 3.82353V7.5H180.98V23.75H176.789V7.5H171.716V3.82353H186.054ZM199.902 7.37745H192.5V12.0343H198.162V15.4657H192.5V20.1961H199.902V23.75H188.284V3.82353H199.902V7.37745Z" fill="#2B536C"/>
<path fill-rule="evenodd" clip-rule="evenodd" d="M64.1177 31.0294L63.701 31.8137C63.652 31.8954 63.6029 31.9526 63.5539 31.9853C63.5049 32.018 63.4314 32.0343 63.3333 32.0343C63.268 32.0343 63.1863 32.018 63.0882 31.9853C63.0065 31.9363 62.9085 31.8791 62.7941 31.8137C62.6961 31.7484 62.5735 31.6993 62.4265 31.6667C62.2958 31.6176 62.1405 31.5931 61.9608 31.5931C61.6503 31.5931 61.4134 31.6585 61.25 31.7892C61.103 31.9199 61.0294 32.0997 61.0294 32.3284C61.0294 32.4592 61.0784 32.5735 61.1765 32.6716C61.2582 32.7696 61.3726 32.8513 61.5196 32.9167C61.6667 32.982 61.8382 33.0474 62.0343 33.1128C62.2304 33.1618 62.4265 33.2271 62.6226 33.3088C62.8186 33.3742 63.0147 33.4559 63.2108 33.5539C63.4069 33.652 63.5784 33.7745 63.7255 33.9216C63.8726 34.0686 63.9869 34.2484 64.0686 34.4608C64.1667 34.6569 64.2157 34.9101 64.2157 35.2206C64.2157 35.5474 64.1585 35.8497 64.0441 36.1275C63.9297 36.4216 63.7663 36.6748 63.5539 36.8873C63.3252 37.0997 63.0556 37.2712 62.7451 37.402C62.4183 37.5163 62.0588 37.5735 61.6667 37.5735C61.4379 37.5735 61.2092 37.549 60.9804 37.5C60.7516 37.4673 60.5311 37.4101 60.3186 37.3284C60.0899 37.2304 59.8856 37.1242 59.7059 37.0098C59.5098 36.8954 59.3464 36.7729 59.2157 36.6422L59.7059 35.8578C59.7386 35.8088 59.7876 35.768 59.853 35.7353C59.9183 35.6863 59.9837 35.6618 60.049 35.6618C60.1471 35.6618 60.2451 35.6944 60.3431 35.7598C60.4575 35.8252 60.5719 35.8905 60.6863 35.9559C60.817 36.0376 60.9641 36.1111 61.1275 36.1765C61.2909 36.2418 61.4869 36.2745 61.7157 36.2745C62.0098 36.2745 62.2386 36.2092 62.402 36.0784C62.5654 35.9314 62.6471 35.719 62.6471 35.4412C62.6471 35.2778 62.6062 35.1389 62.5245 35.0245C62.4265 34.9265 62.3039 34.8448 62.1569 34.7794C62.0098 34.6977 61.8382 34.6324 61.6422 34.5833C61.4624 34.5343 61.2745 34.4771 61.0784 34.4118C60.866 34.3464 60.6699 34.2729 60.4902 34.1912C60.2941 34.0931 60.1226 33.9706 59.9755 33.8235C59.8284 33.6601 59.7059 33.4641 59.6079 33.2353C59.5262 33.0065 59.4853 32.7288 59.4853 32.402C59.4853 32.1405 59.5343 31.8791 59.6324 31.6177C59.7467 31.3562 59.9101 31.1275 60.1226 30.9314C60.335 30.7353 60.5882 30.5801 60.8824 30.4657C61.1928 30.335 61.5441 30.2696 61.9363 30.2696C62.1487 30.2696 62.3611 30.2941 62.5735 30.3431C62.786 30.3758 62.982 30.4248 63.1618 30.4902C63.3415 30.5556 63.5131 30.6373 63.6765 30.7353C63.8399 30.817 63.9869 30.915 64.1177 31.0294ZM77.549 33.9216C77.549 34.4444 77.4592 34.9265 77.2794 35.3677C77.0997 35.8088 76.8546 36.1928 76.5441 36.5196C76.2173 36.8464 75.8252 37.1078 75.3677 37.3039C74.9101 37.4837 74.4036 37.5735 73.848 37.5735C73.2925 37.5735 72.786 37.4837 72.3284 37.3039C71.8709 37.1078 71.4788 36.8464 71.152 36.5196C70.8252 36.1928 70.5719 35.8088 70.3922 35.3677C70.2124 34.9265 70.1226 34.4444 70.1226 33.9216C70.1226 33.415 70.2124 32.933 70.3922 32.4755C70.5719 32.0343 70.8252 31.6503 71.152 31.3235C71.4788 30.9967 71.8709 30.7435 72.3284 30.5637C72.786 30.3676 73.2925 30.2696 73.848 30.2696C74.4036 30.2696 74.9101 30.3676 75.3677 30.5637C75.8252 30.7435 76.2173 30.9967 76.5441 31.3235C76.8546 31.6503 77.0997 32.0425 77.2794 32.5C77.4592 32.9412 77.549 33.415 77.549 33.9216ZM75.8579 33.9216C75.8579 33.5784 75.8088 33.2598 75.7108 32.9657C75.6291 32.6879 75.4984 32.451 75.3186 32.2549C75.1552 32.0588 74.951 31.9118 74.7059 31.8137C74.4445 31.6994 74.1585 31.6422 73.848 31.6422C73.5212 31.6422 73.2353 31.6994 72.9902 31.8137C72.7451 31.9118 72.5327 32.0588 72.353 32.2549C72.1896 32.451 72.0588 32.6879 71.9608 32.9657C71.8791 33.2598 71.8382 33.5784 71.8382 33.9216C71.8382 34.281 71.8791 34.5997 71.9608 34.8775C72.0588 35.1716 72.1896 35.4167 72.353 35.6127C72.5327 35.8088 72.7451 35.9559 72.9902 36.0539C73.2353 36.152 73.5212 36.201 73.848 36.201C74.1585 36.201 74.4445 36.152 74.7059 36.0539C74.951 35.9559 75.1552 35.8088 75.3186 35.6127C75.4984 35.4167 75.6291 35.1716 75.7108 34.8775C75.8088 34.5997 75.8579 34.281 75.8579 33.9216ZM85.6863 36.1765H88.3333V37.5H84.0196V30.3677H85.6863V36.1765ZM97.549 36.1765C97.7615 36.1765 97.9575 36.1438 98.1373 36.0784C98.317 35.9967 98.4641 35.8905 98.5784 35.7598C98.7092 35.6127 98.799 35.4412 98.848 35.2451C98.9134 35.049 98.9461 34.8284 98.9461 34.5833V30.3431H100.613V34.5833C100.613 35.0245 100.539 35.4248 100.392 35.7843C100.261 36.1438 100.057 36.4624 99.7794 36.7402C99.518 37.0016 99.1994 37.2059 98.8235 37.3529C98.4477 37.5 98.0229 37.5735 97.549 37.5735C97.0752 37.5735 96.6422 37.5 96.25 37.3529C95.8742 37.2059 95.5556 37.0016 95.2941 36.7402C95.0327 36.4624 94.8284 36.1438 94.6814 35.7843C94.5507 35.4248 94.4853 35.0245 94.4853 34.5833V30.3431H96.1275V34.5833C96.1275 34.8284 96.1601 35.049 96.2255 35.2451C96.2909 35.4412 96.3807 35.6127 96.4951 35.7598C96.6258 35.8905 96.7729 35.9967 96.9363 36.0784C97.116 36.1438 97.3203 36.1765 97.549 36.1765ZM112.451 30.3431V31.6667H110.441V37.5H108.775V31.6667H106.765V30.3431H112.451ZM120.515 30.3431V37.5H118.848V30.3431H120.515ZM134.436 33.9216C134.436 34.4281 134.346 34.9101 134.167 35.3677C133.987 35.8088 133.734 36.1928 133.407 36.5196C133.08 36.8464 132.688 37.0997 132.23 37.2794C131.773 37.4755 131.266 37.5735 130.711 37.5735C130.155 37.5735 129.649 37.4755 129.191 37.2794C128.734 37.0997 128.342 36.8464 128.015 36.5196C127.704 36.1928 127.459 35.8088 127.279 35.3677C127.1 34.9101 127.01 34.4281 127.01 33.9216C127.01 33.3987 127.1 32.9167 127.279 32.4755C127.459 32.0343 127.704 31.6503 128.015 31.3235C128.342 30.9967 128.734 30.7353 129.191 30.5392C129.649 30.3595 130.155 30.2696 130.711 30.2696C131.266 30.2696 131.773 30.3676 132.23 30.5637C132.688 30.7435 133.08 30.9967 133.407 31.3235C133.734 31.6503 133.987 32.0343 134.167 32.4755C134.346 32.9167 134.436 33.3987 134.436 33.9216ZM132.721 33.9216C132.721 33.5621 132.68 33.2435 132.598 32.9657C132.5 32.6879 132.369 32.451 132.206 32.2549C132.026 32.0588 131.814 31.9036 131.569 31.7892C131.324 31.6912 131.038 31.6422 130.711 31.6422C130.4 31.6422 130.114 31.6912 129.853 31.7892C129.608 31.9036 129.404 32.0588 129.24 32.2549C129.06 32.451 128.93 32.6879 128.848 32.9657C128.75 33.2435 128.701 33.5621 128.701 33.9216C128.701 34.281 128.75 34.5997 128.848 34.8775C128.93 35.1552 129.06 35.3922 129.24 35.5882C129.404 35.7843 129.608 35.9395 129.853 36.0539C130.114 36.152 130.4 36.201 130.711 36.201C131.038 36.201 131.324 36.152 131.569 36.0539C131.814 35.9395 132.026 35.7843 132.206 35.5882C132.369 35.3922 132.5 35.1552 132.598 34.8775C132.68 34.5997 132.721 34.281 132.721 33.9216ZM145.417 30.3431H146.887V37.5H146.029C145.899 37.5 145.792 37.4755 145.711 37.4265C145.613 37.3938 145.523 37.3203 145.441 37.2059L142.083 32.9657C142.1 33.0801 142.108 33.2026 142.108 33.3333C142.108 33.4477 142.108 33.5539 142.108 33.652V37.5H140.662V30.3431H141.52C141.601 30.3431 141.667 30.3513 141.716 30.3677C141.765 30.3677 141.806 30.3758 141.838 30.3922C141.871 30.4085 141.912 30.433 141.961 30.4657C141.993 30.4984 142.034 30.5474 142.083 30.6127L145.466 34.902C145.449 34.7549 145.441 34.616 145.441 34.4853C145.425 34.3546 145.417 34.232 145.417 34.1176V30.3431ZM158.235 31.0294L157.843 31.8137C157.794 31.8791 157.737 31.9363 157.672 31.9853C157.623 32.018 157.557 32.0343 157.476 32.0343C157.394 32.0343 157.312 32.0098 157.23 31.9608C157.149 31.9118 157.051 31.8627 156.936 31.8137C156.822 31.7484 156.699 31.6912 156.569 31.6422C156.422 31.5931 156.258 31.5686 156.078 31.5686C155.768 31.5686 155.539 31.6422 155.392 31.7892C155.229 31.9199 155.147 32.0915 155.147 32.3039C155.147 32.451 155.196 32.5735 155.294 32.6716C155.392 32.7696 155.515 32.8513 155.662 32.9167C155.809 32.982 155.972 33.0474 156.152 33.1128C156.348 33.1618 156.544 33.2271 156.74 33.3088C156.953 33.3742 157.149 33.4559 157.328 33.5539C157.525 33.6356 157.696 33.75 157.843 33.8971C157.99 34.0441 158.113 34.2239 158.211 34.4363C158.293 34.6487 158.333 34.902 158.333 35.1961C158.333 35.5392 158.276 35.8497 158.162 36.1275C158.047 36.4216 157.884 36.6748 157.672 36.8873C157.459 37.0997 157.19 37.2712 156.863 37.402C156.552 37.5163 156.193 37.5735 155.784 37.5735C155.556 37.5735 155.327 37.549 155.098 37.5C154.869 37.451 154.649 37.3856 154.436 37.3039C154.224 37.2222 154.02 37.1242 153.824 37.0098C153.644 36.8954 153.48 36.7729 153.333 36.6422L153.824 35.8578C153.856 35.8088 153.905 35.7598 153.971 35.7108C154.036 35.6781 154.109 35.6618 154.191 35.6618C154.289 35.6618 154.387 35.6944 154.485 35.7598C154.583 35.8252 154.698 35.8905 154.828 35.9559C154.943 36.0376 155.082 36.1111 155.245 36.1765C155.409 36.2255 155.605 36.25 155.833 36.25C156.127 36.25 156.364 36.1846 156.544 36.0539C156.708 35.9232 156.789 35.719 156.789 35.4412C156.789 35.2614 156.74 35.1226 156.642 35.0245C156.56 34.9265 156.438 34.8366 156.275 34.7549C156.127 34.6895 155.964 34.6324 155.784 34.5833C155.588 34.5343 155.392 34.4771 155.196 34.4118C155 34.3464 154.804 34.2647 154.608 34.1667C154.428 34.085 154.257 33.9624 154.093 33.799C153.946 33.652 153.832 33.4641 153.75 33.2353C153.652 33.0065 153.603 32.7288 153.603 32.402C153.603 32.1242 153.66 31.8627 153.775 31.6177C153.873 31.3562 154.028 31.1275 154.24 30.9314C154.453 30.7353 154.714 30.5801 155.025 30.4657C155.319 30.335 155.662 30.2696 156.054 30.2696C156.283 30.2696 156.495 30.286 156.691 30.3186C156.904 30.3513 157.1 30.4085 157.279 30.4902C157.476 30.5556 157.655 30.6291 157.819 30.7108C157.982 30.8088 158.121 30.915 158.235 31.0294ZM174.167 36.1765H176.814V37.5H172.525V30.3431H174.167V36.1765ZM184.706 36.1765H187.353V37.5H183.064V30.3677H184.706V36.1765ZM193.603 30.3677H196.103C196.609 30.3677 197.043 30.4248 197.402 30.5392C197.761 30.6536 198.064 30.817 198.309 31.0294C198.538 31.2418 198.709 31.4869 198.824 31.7647C198.938 32.0588 198.995 32.3693 198.995 32.6961C198.995 33.0556 198.938 33.3824 198.824 33.6765C198.709 33.9706 198.529 34.2239 198.284 34.4363C198.056 34.6487 197.761 34.8121 197.402 34.9265C197.043 35.0572 196.609 35.1226 196.103 35.1226H195.245V37.5H193.603V30.3677ZM195.245 33.8726H196.103C196.544 33.8726 196.855 33.7663 197.034 33.5539C197.23 33.3578 197.328 33.0719 197.328 32.6961C197.328 32.5327 197.304 32.3856 197.255 32.2549C197.206 32.1242 197.132 32.0098 197.034 31.9118C196.936 31.8137 196.806 31.7402 196.642 31.6912C196.495 31.6422 196.315 31.6177 196.103 31.6177H195.245V33.8726Z" fill="#B79827"/>
</g>
<defs>
<clipPath id="clip0_1_621">
<rect width="200" height="38.9706" fill="white"/>
</clipPath>
</defs>
</svg>
